# Blender v2.68 (sub 0) OBJ File: 'shadowhouse.blend'
# www.blender.org
mtllib shadowhouse.mtl
o Plane.001
v 9.351757 0.176535 9.408608
v -9.374474 0.176535 9.408608
v 9.351757 0.176535 -18.575089
v -9.374474 0.176535 -18.575089
vn 0.000000 1.000000 -0.000000
usemtl floor
s off
f 2//1 1//1 4//1
f 1//1 3//1 4//1
o Cube.004_Cube.006
v -9.562275 16.791641 9.564199
v -9.562275 16.791641 -18.481857
v 1.332808 21.666183 -18.481857
v 1.332808 21.666183 9.564199
v -9.650292 16.988369 9.564199
v -9.650292 16.988369 -18.481857
v 1.244790 21.862911 -18.481857
v 1.244790 21.862911 9.564199
vn -0.912805 -0.408396 0.000000
vn -0.000000 0.000000 -1.000000
vn 0.912805 0.408396 0.000000
vn 0.000000 -0.000000 1.000000
vn 0.408396 -0.912805 0.000000
vn -0.408396 0.912805 0.000000
usemtl Roof
s off
f 9//2 10//2 5//2
f 10//3 11//3 6//3
f 11//4 12//4 7//4
f 12//5 9//5 8//5
f 5//6 6//6 8//6
f 12//7 11//7 9//7
f 10//2 6//2 5//2
f 11//3 7//3 6//3
f 12//4 8//4 7//4
f 9//5 5//5 8//5
f 6//6 7//6 8//6
f 11//7 10//7 9//7
o Cube_Cube.002
v -9.559293 -14.520668 -18.205702
v -9.559293 -14.520668 -18.620190
v 9.559293 -14.520668 -18.620190
v 9.559293 -14.520668 -18.205702
v -9.559293 16.878965 -18.205702
v -9.559293 16.878965 -18.620190
v 9.559293 16.878965 -18.620190
v 9.559293 16.878965 -18.205702
vt -3.466454 -3.466454
vt 4.466454 -3.466454
vt -3.466454 4.466454
vt 4.466454 4.466454
vn -1.000000 0.000000 0.000000
vn 1.000000 -0.000000 0.000000
vn -0.000000 -1.000000 0.000000
usemtl brick_material
s off
f 17/1/8 18/2/8 13/3/8
f 18/1/3 19/2/3 14/3/3
f 19/1/9 20/2/9 15/3/9
f 20/1/5 17/2/5 16/3/5
f 13/1/10 14/2/10 16/3/10
f 20/1/1 19/2/1 17/3/1
f 18/2/8 14/4/8 13/3/8
f 19/2/3 15/4/3 14/3/3
f 20/2/9 16/4/9 15/3/9
f 17/2/5 13/4/5 16/3/5
f 14/2/10 15/4/10 16/3/10
f 19/2/1 18/4/1 17/3/1
o Plane
v 40.000000 0.000000 40.000000
v -40.000000 0.000000 40.000000
v 40.000000 0.000000 -40.000000
v -40.000000 0.000000 -40.000000
vt -40.493576 -53.991447
vt 41.243618 -53.991463
vt -40.493576 54.991463
vt 41.243626 54.991463
usemtl grass_material
s off
f 22/5/1 21/6/1 24/7/1
f 21/6/1 23/8/1 24/7/1
o Cube.001_Cube.003
v 9.120964 -14.520669 9.348338
v 9.535450 -14.520669 9.348338
v 9.535449 -14.520667 -18.315720
v 9.120963 -14.520667 -18.315720
v 9.120967 16.878963 9.348340
v 9.535453 16.878963 9.348340
v 9.535452 16.878967 -18.315716
v 9.120966 16.878967 -18.315716
vt -3.466454 -3.466454
vt 4.466454 -3.466454
vt -3.466454 4.466454
vt 4.466454 4.466454
usemtl brick_material
s off
f 29/9/3 30/10/3 25/11/3
f 30/9/8 31/10/8 26/11/8
f 31/9/5 32/10/5 27/11/5
f 32/9/9 29/10/9 28/11/9
f 25/9/1 26/10/1 28/11/1
f 32/9/10 31/10/10 29/11/10
f 30/10/3 26/12/3 25/11/3
f 31/10/8 27/12/8 26/11/8
f 32/10/5 28/12/5 27/11/5
f 29/10/9 25/12/9 28/11/9
f 26/10/1 27/12/1 28/11/1
f 31/10/10 30/12/10 29/11/10
o Cube.002_Cube.004
v -9.559293 -14.520668 9.712473
v -9.559293 -14.520668 9.297986
v 9.559293 -14.520668 9.297986
v 9.559293 -14.520668 9.712473
v -9.559293 16.878965 9.712473
v -9.559293 16.878965 9.297986
v 9.559293 16.878965 9.297986
v 9.559293 16.878965 9.712473
vt -3.466454 -3.466454
vt 4.466454 -3.466454
vt -3.466454 4.466454
vt 4.466454 4.466454
usemtl brick_material
s off
f 37/13/8 38/14/8 33/15/8
f 38/13/3 39/14/3 34/15/3
f 39/13/9 40/14/9 35/15/9
f 40/13/5 37/14/5 36/15/5
f 33/13/10 34/14/10 36/15/10
f 40/13/1 39/14/1 37/15/1
f 38/14/8 34/16/8 33/15/8
f 39/14/3 35/16/3 34/15/3
f 40/14/9 36/16/9 35/15/9
f 37/14/5 33/16/5 36/15/5
f 34/14/10 35/16/10 36/15/10
f 39/14/1 38/16/1 37/15/1
o Cube.003_Cube.005
v -9.551096 -14.520669 9.348338
v -9.136610 -14.520669 9.348338
v -9.136611 -14.520667 -18.315720
v -9.551097 -14.520667 -18.315720
v -9.551093 16.878963 9.348340
v -9.136607 16.878963 9.348340
v -9.136608 16.878967 -18.315716
v -9.551094 16.878967 -18.315716
vt -3.466454 -3.466454
vt 4.466454 -3.466454
vt -3.466454 4.466454
vt 4.466454 4.466454
usemtl brick_material
s off
f 45/17/3 46/18/3 41/19/3
f 46/17/8 47/18/8 42/19/8
f 47/17/5 48/18/5 43/19/5
f 48/17/9 45/18/9 44/19/9
f 41/17/1 42/18/1 44/19/1
f 48/17/10 47/18/10 45/19/10
f 46/18/3 42/20/3 41/19/3
f 47/18/8 43/20/8 42/19/8
f 48/18/5 44/20/5 43/19/5
f 45/18/9 41/20/9 44/19/9
f 42/18/1 43/20/1 44/19/1
f 47/18/10 46/20/10 45/19/10
o Cube.005_Cube.007
v 9.655074 17.010672 9.564199
v 9.655074 17.010672 -18.481857
v 1.379743 21.819847 -18.481857
v 1.379743 21.819847 9.564199
v 9.552812 16.834705 9.564199
v 9.552812 16.834705 -18.481857
v 1.277480 21.643881 -18.481857
v 1.277480 21.643881 9.564199
vn 0.864600 -0.502461 0.000000
vn -0.864600 0.502461 0.000000
vn 0.502459 0.864601 -0.000000
vn -0.502459 -0.864601 0.000000
usemtl Roof
s off
f 53//11 54//11 49//11
f 54//3 55//3 50//3
f 55//12 56//12 51//12
f 56//5 53//5 52//5
f 49//13 50//13 52//13
f 56//14 55//14 53//14
f 54//11 50//11 49//11
f 55//3 51//3 50//3
f 56//12 52//12 51//12
f 53//5 49//5 52//5
f 50//13 51//13 52//13
f 55//14 54//14 53//14
